/* XPM */
static char *sudoku[] = {
/* columns rows colors chars-per-pixel */
"32 32 47 1 ",
"  c #3B3B3B",
". c #3E3E3E",
"X c #464646",
"o c #4D4D4D",
"O c #515151",
"+ c #565656",
"@ c #5B5B5B",
"# c #5E5E5E",
"$ c #636363",
"% c #666666",
"& c #6B6B6B",
"* c #6D6D6D",
"= c #717171",
"- c #757575",
"; c #787878",
": c #7D7D7D",
"> c #818181",
", c #858585",
"< c #8B8B8B",
"1 c #8E8E8E",
"2 c #939393",
"3 c #979797",
"4 c #989898",
"5 c #9F9F9F",
"6 c #A1A1A1",
"7 c #A4A4A4",
"8 c #A9A9A9",
"9 c #AEAEAE",
"0 c #B3B3B3",
"q c #B6B6B6",
"w c #BABABA",
"e c #BDBDBD",
"r c #C2C2C2",
"t c #CCCCCC",
"y c #CECECE",
"u c #D2D2D2",
"i c #D5D5D5",
"p c #DADADA",
"a c #DEDEDE",
"s c #E0E0E0",
"d c #E3E3E3",
"f c #E8E8E8",
"g c #EBEBEB",
"h c #F2F2F2",
"j c #F4F4F4",
"k c #F8F8F8",
"l c white",
/* pixels */
" =-;-;-;;;+%----;-;;*O-========X",
"=fjjjjjjjj6yjjjjjjjjp;q00qq0q0q-",
"-hllljjlll7illlllllla-q0086800q-",
"-hlld;6lll7illlllllld;q07&;100q-",
"-hllf64lll6illlllllla;q07*9000q-",
"-hllle4lll6plllllllla:q09;<=7qq-",
"-hllle4lll6illlllllla:q0q9e:4qq-",
"-hlly-$ell6plllllllla;qq0;;>9qq-",
"-hllhaafll6plllllllla:q0086900q-",
"-hllllllll6pllllllllp:q0qqq0q0q-",
"o465567777%<778887882$222212333@",
"%yppppiiip>2777677772*887888787%",
"-hllllllll47qq0qqq0q8:q0qqqq00q-",
"-hllllllll46q00049007:qqq6:400q-",
"-hllllllll3600q4%7q07:q00;7800q-",
"-hllllllll360q8126q07:q08&1400q;",
"-hllllllll35q0:3:4qq7:q07&0,60q-",
"-hllllllll250q1<$<q07:qq0>7;7qq-",
"-hllllllll25q0qw98007>q0q8<300q-",
"-hllllllll25q00qqq0q8>qqqqwq0qq;",
"%ypppppppa>1655555552-545555556&",
"+565565655#,33222222:$322222221o",
"-hllllllll5allllllllu7lllkllllj>",
"-hllllllll4allllllllu8llllllllk,",
"-hllllllll3allllllllu8llllllllk>",
"-hllllllll4dllllllllu8llllllllk>",
"-hllllllll5alllllllly8llllllllk,",
"-hllllllll5dllllllllu8llllllllk>",
"-hllllllll4dlllllllly8llllllllk>",
"-hllllllll4dlllllllly9llllllllk>",
"*dhhhhhhhh3phhhhhhhhr7jhhhhhhjf:",
" *========o%========#o=======*&X"
};
